<svg xmlns="http://www.w3.org/2000/svg" version="1.1" width="1300" height="510">
<line x1="100" y1="400" x2="200" y2="100" stroke="black" stroke-width="2" />
<line x1="600" y1="300" x2="400" y2="500" stroke="black" stroke-width="2" />
<path d="M 100 400 L 103 391.29 106.06 382.99 109.17 375.09 112.35 367.57 115.57 360.43 118.86 353.67 122.2 347.28 125.59 341.24 129.04 335.56 132.55 330.22 136.1 325.21 139.71 320.53 143.37 316.18 147.08 312.13 150.84 308.4 154.66 304.96 158.52 301.81 162.43 298.94 166.39 296.35 170.39 294.03 174.45 291.97 178.55 290.16 182.69 288.6 186.88 287.27 191.12 286.18 195.4 285.3 199.73 284.64 204.09 284.19 208.5 283.94 212.96 283.88 217.45 284.01 221.98 284.31 226.56 284.78 231.17 285.41 235.82 286.2 240.52 287.14 245.25 288.21 250.01 289.42 254.82 290.74 259.65 292.19 264.53 293.75 269.44 295.4 274.38 297.15 279.36 298.99 284.37 300.9 289.42 302.89 294.49 304.94 299.6 307.04 304.74 309.2 309.9 311.39 315.1 313.62 320.33 315.87 325.59 318.14 330.87 320.42 336.18 322.71 341.52 324.99 346.88 327.25 352.27 329.5 357.69 331.72 363.13 333.91 368.59 336.05 374.07 338.14 379.58 340.18 385.11 342.15 390.67 344.05 396.24 345.86 401.83 347.59 407.45 349.23 413.08 350.76 418.73 352.18 424.4 353.48 430.09 354.65 435.79 355.7 441.51 356.6 447.25 357.35 453 357.95 458.77 358.38 464.55 358.64 470.34 358.72 476.15 358.62 481.96 358.32 487.79 357.83 493.64 357.12 499.49 356.19 505.35 355.05 511.22 353.67 517.1 352.05 522.99 350.18 528.88 348.06 534.78 345.68 540.69 343.02 546.61 340.09 552.52 336.88 558.45 333.37 564.38 329.56 570.31 325.45 576.24 321.02 582.18 316.27 588.12 311.19 594.06 305.77 L 600 300" fill="none" stroke="blue" stroke-width="3" />
<circle cx="100" cy="400" r="5" fill="blue" stroke="black" stroke-width="2" />
<circle cx="200" cy="100" r="5" fill="white" stroke="black" stroke-width="2" />
<circle cx="400" cy="500" r="5" fill="white" stroke="black" stroke-width="2" />
<circle cx="600" cy="300" r="5" fill="blue" stroke="black" stroke-width="2" />
<line x1="800" y1="400" x2="1000" y2="100" stroke="black" stroke-width="2" />
<line x1="1100" y1="300" x2="1000" y2="100" stroke="black" stroke-width="2" />
<path d="M 800 400 L 803.95 394.11 807.88 388.31 811.79 382.62 815.68 377.02 819.56 371.52 823.41 366.12 827.24 360.82 831.06 355.61 834.85 350.5 838.62 345.5 842.38 340.58 846.11 335.77 849.83 331.06 853.52 326.44 857.2 321.92 860.86 317.5 864.49 313.18 868.11 308.95 871.71 304.82 875.29 300.79 878.85 296.86 882.38 293.03 885.9 289.3 889.4 285.66 892.88 282.12 896.34 278.68 899.78 275.34 903.21 272.09 906.61 268.94 909.99 265.9 913.35 262.94 916.69 260.09 920.02 257.34 923.32 254.68 926.61 252.12 929.87 249.66 933.11 247.3 936.34 245.03 939.55 242.87 942.73 240.8 945.9 238.83 949.04 236.96 952.17 235.18 955.28 233.51 958.37 231.93 961.44 230.45 964.48 229.07 967.51 227.78 970.52 226.6 973.51 225.51 976.48 224.52 979.43 223.63 982.36 222.83 985.28 222.14 988.17 221.54 991.04 221.04 993.89 220.64 996.73 220.33 999.54 220.13 1002.33 220.02 1005.11 220.01 1007.86 220.1 1010.6 220.28 1013.31 220.57 1016.01 220.95 1018.68 221.43 1021.34 222.01 1023.98 222.68 1026.6 223.46 1029.19 224.33 1031.77 225.3 1034.33 226.37 1036.87 227.54 1039.39 228.8 1041.89 230.16 1044.37 231.62 1046.83 233.18 1049.27 234.84 1051.69 236.59 1054.09 238.45 1056.47 240.4 1058.84 242.45 1061.18 244.59 1063.5 246.84 1065.81 249.18 1068.09 251.62 1070.36 254.16 1072.6 256.8 1074.83 259.53 1077.03 262.37 1079.22 265.3 1081.38 268.33 1083.53 271.45 1085.66 274.68 1087.77 278 1089.85 281.42 1091.92 284.94 1093.97 288.56 1096 292.28 1098.01 296.09 L 1100 300" fill="none" stroke="blue" stroke-width="3" />
<circle cx="800" cy="400" r="5" fill="blue" stroke="black" stroke-width="2" />
<circle cx="1000" cy="100" r="5" fill="white" stroke="black" stroke-width="2" />
<circle cx="1100" cy="300" r="5" fill="blue" stroke="black" stroke-width="2" />
</svg>
